<svg width="86" height="87" viewBox="0 0 86 87" fill="none" xmlns="http://www.w3.org/2000/svg">
<circle cx="43" cy="43.0244" r="42.5" fill="white" stroke="#D5D5D5"/>
<path d="M56.8148 51.5896H55.6296V27.2418C55.6296 26.9189 55.5048 26.6093 55.2825 26.381C55.0602 26.1527 54.7588 26.0244 54.4444 26.0244H46.1481C45.8338 26.0244 45.5324 26.1527 45.3101 26.381C45.0878 26.6093 44.963 26.9189 44.963 27.2418V33.3288H37.8519C37.5375 33.3288 37.2361 33.457 37.0138 33.6853C36.7915 33.9136 36.6667 34.2233 36.6667 34.5462V40.6331H29.5556C29.2412 40.6331 28.9398 40.7614 28.7175 40.9897C28.4952 41.218 28.3704 41.5276 28.3704 41.8505V51.5896H27.1852C26.8709 51.5896 26.5694 51.7179 26.3471 51.9462C26.1249 52.1745 26 52.4841 26 52.807C26 53.1299 26.1249 53.4395 26.3471 53.6678C26.5694 53.8962 26.8709 54.0244 27.1852 54.0244H56.8148C57.1291 54.0244 57.4306 53.8962 57.6529 53.6678C57.8751 53.4395 58 53.1299 58 52.807C58 52.4841 57.8751 52.1745 57.6529 51.9462C57.4306 51.7179 57.1291 51.5896 56.8148 51.5896ZM39.037 35.7635H44.963V51.5896H39.037V35.7635ZM30.7407 43.0679H36.6667V51.5896H30.7407V43.0679Z" fill="#292930"/>
</svg>
