<svg width="88" height="89" viewBox="0 0 88 89" fill="none" xmlns="http://www.w3.org/2000/svg">
<circle cx="44" cy="44.0244" r="44" fill="#FFDC60"/>
<path d="M44 51.0244C47.866 51.0244 51 47.8904 51 44.0244C51 40.1584 47.866 37.0244 44 37.0244C40.134 37.0244 37 40.1584 37 44.0244C37 47.8904 40.134 51.0244 44 51.0244Z" stroke="#866C12" stroke-width="2" stroke-linecap="round" stroke-linejoin="round"/>
<path d="M53.9563 59.0202C50.6152 61.2384 46.629 62.2774 42.6302 61.9722C38.6315 61.667 34.8491 60.0352 31.8834 57.3356C28.9176 54.636 26.9384 51.0233 26.2597 47.0707C25.581 43.1182 26.2417 39.0521 28.1369 35.5178C30.0322 31.9835 33.0535 29.1834 36.7214 27.5617C40.3893 25.94 44.4937 25.5897 48.3834 26.5663C52.2731 27.5429 55.7252 29.7906 58.192 32.9525C60.6588 36.1145 61.9991 40.0098 62 44.0202C62 48.1639 60.5 51.5202 56.75 51.5202C53 51.5202 51.5 48.1639 51.5 44.0202V36.5202" stroke="#866C12" stroke-width="2" stroke-linecap="round" stroke-linejoin="round"/>
</svg>
