<svg width="88" height="89" viewBox="0 0 88 89" fill="none" xmlns="http://www.w3.org/2000/svg">
<circle cx="44" cy="44.0244" r="44" fill="#FFDC60"/>
<path d="M48 42.6673H45.3333V31.8101H46.6667C48.0798 31.8146 49.4338 32.388 50.433 33.4051C51.4323 34.4221 51.9956 35.8003 52 37.2387C52 37.5986 52.1405 37.9438 52.3905 38.1983C52.6406 38.4529 52.9797 38.5958 53.3333 38.5958C53.687 38.5958 54.0261 38.4529 54.2761 38.1983C54.5262 37.9438 54.6667 37.5986 54.6667 37.2387C54.6667 35.0791 53.8238 33.0079 52.3235 31.4808C50.8232 29.9537 48.7884 29.0958 46.6667 29.0958H45.3333V26.3816C45.3333 26.0216 45.1929 25.6764 44.9428 25.4219C44.6928 25.1674 44.3536 25.0244 44 25.0244C43.6464 25.0244 43.3072 25.1674 43.0572 25.4219C42.8071 25.6764 42.6667 26.0216 42.6667 26.3816V29.0958H40.6667C38.5449 29.0958 36.5101 29.9537 35.0098 31.4808C33.5095 33.0079 32.6667 35.0791 32.6667 37.2387C32.6667 39.3983 33.5095 41.4695 35.0098 42.9966C36.5101 44.5237 38.5449 45.3816 40.6667 45.3816H42.6667V56.2387H40C38.5869 56.2342 37.2329 55.6609 36.2336 54.6438C35.2344 53.6267 34.6711 52.2485 34.6667 50.8101C34.6667 50.4502 34.5262 50.105 34.2761 49.8505C34.0261 49.596 33.687 49.453 33.3333 49.453C32.9797 49.453 32.6406 49.596 32.3905 49.8505C32.1405 50.105 32 50.4502 32 50.8101C32 52.9697 32.8429 55.0409 34.3431 56.568C35.8434 58.0951 37.8783 58.953 40 58.953H42.6667V61.6673C42.6667 62.0272 42.8071 62.3724 43.0572 62.6269C43.3072 62.8814 43.6464 63.0244 44 63.0244C44.3536 63.0244 44.6928 62.8814 44.9428 62.6269C45.1929 62.3724 45.3333 62.0272 45.3333 61.6673V58.953H48C50.1217 58.953 52.1566 58.0951 53.6569 56.568C55.1571 55.0409 56 52.9697 56 50.8101C56 48.6505 55.1571 46.5793 53.6569 45.0523C52.1566 43.5252 50.1217 42.6673 48 42.6673ZM42.6667 42.6673H40.6667C39.2522 42.6673 37.8956 42.0953 36.8954 41.0773C35.8952 40.0592 35.3333 38.6784 35.3333 37.2387C35.3333 35.799 35.8952 34.4182 36.8954 33.4001C37.8956 32.3821 39.2522 31.8101 40.6667 31.8101H42.6667V42.6673ZM48 56.2387H45.3333V45.3816H48C49.4145 45.3816 50.771 45.9535 51.7712 46.9715C52.7714 47.9896 53.3333 49.3704 53.3333 50.8101C53.3333 52.2499 52.7714 53.6307 51.7712 54.6487C50.771 55.6668 49.4145 56.2387 48 56.2387Z" fill="#B4962B"/>
</svg>
