<svg width="88" height="89" viewBox="0 0 88 89" fill="none" xmlns="http://www.w3.org/2000/svg">
<circle cx="44" cy="44.0244" r="44" fill="#93E1A4"/>
<path d="M38.625 38.6494H49.625" stroke="#279B41" stroke-width="2" stroke-linecap="round" stroke-linejoin="round"/>
<path d="M38.625 44.1494H49.625" stroke="#279B41" stroke-width="2" stroke-linecap="round" stroke-linejoin="round"/>
<path d="M38.625 49.6494H44.125" stroke="#279B41" stroke-width="2" stroke-linecap="round" stroke-linejoin="round"/>
<path d="M49.0578 59.2744H30.375C30.0103 59.2744 29.6606 59.1295 29.4027 58.8717C29.1449 58.6138 29 58.2641 29 57.8994V30.3994C29 30.0347 29.1449 29.685 29.4027 29.4271C29.6606 29.1693 30.0103 29.0244 30.375 29.0244H57.875C58.2397 29.0244 58.5894 29.1693 58.8473 29.4271C59.1051 29.685 59.25 30.0347 59.25 30.3994V49.0822C59.2506 49.2608 59.216 49.4377 59.1482 49.6028C59.0804 49.768 58.9806 49.9182 58.8547 50.0447L50.0203 58.8791C49.8937 59.005 49.7436 59.1048 49.5784 59.1726C49.4133 59.2404 49.2364 59.275 49.0578 59.2744V59.2744Z" stroke="#279B41" stroke-width="2" stroke-linecap="round" stroke-linejoin="round"/>
<path d="M59.1297 49.6494H49.625V59.1541" stroke="#279B41" stroke-width="2" stroke-linecap="round" stroke-linejoin="round"/>
</svg>
