<svg width="86" height="87" viewBox="0 0 86 87" fill="none" xmlns="http://www.w3.org/2000/svg">
<circle cx="43" cy="43.0244" r="42.5" fill="white" stroke="#D5D5D5"/>
<path d="M37.6875 47.2744C41.5017 47.2744 44.5938 44.1824 44.5938 40.3682C44.5938 36.5539 41.5017 33.4619 37.6875 33.4619C33.8733 33.4619 30.7812 36.5539 30.7812 40.3682C30.7812 44.1824 33.8733 47.2744 37.6875 47.2744Z" stroke="#5956E8" stroke-width="2" stroke-miterlimit="10"/>
<path d="M46.6387 33.7143C47.2492 33.5487 47.8788 33.4638 48.5113 33.4619C50.343 33.4619 52.0996 34.1895 53.3948 35.4847C54.69 36.7799 55.4176 38.5365 55.4176 40.3682C55.4176 42.1998 54.69 43.9564 53.3948 45.2516C52.0996 46.5468 50.343 47.2744 48.5113 47.2744" stroke="#5956E8" stroke-width="2" stroke-linecap="round" stroke-linejoin="round"/>
<path d="M28.125 52.2415C29.2034 50.7069 30.6352 49.4544 32.2996 48.5898C33.9639 47.7252 35.8119 47.2738 37.6875 47.2738C39.5631 47.2738 41.4111 47.7252 43.0754 48.5898C44.7398 49.4544 46.1716 50.7069 47.25 52.2415" stroke="#5956E8" stroke-width="2" stroke-linecap="round" stroke-linejoin="round"/>
<path d="M48.5117 47.2744C50.3874 47.2733 52.2358 47.7241 53.9004 48.5887C55.5649 49.4534 56.9966 50.7063 58.0742 52.2416" stroke="#5956E8" stroke-width="2" stroke-linecap="round" stroke-linejoin="round"/>
</svg>
