<svg width="1920" height="1146" viewBox="0 0 1920 1146" fill="none" xmlns="http://www.w3.org/2000/svg">
<mask id="mask0_4_4633" style="mask-type:alpha" maskUnits="userSpaceOnUse" x="0" y="-10" width="1920" height="1156">
<rect y="-10" width="1920" height="1156" fill="#D9D9D9"/>
</mask>
<g mask="url(#mask0_4_4633)">
<circle cx="1679" cy="406" r="604" fill="#F4F6FB"/>
<g filter="url(#filter0_f_4_4633)">
<circle cx="1546" cy="399" r="114" fill="#CFDDEC"/>
</g>
<path d="M1509.42 647.412L1453.78 667.399M1509.42 647.412L1509.42 206.5M1509.42 647.412L1573.29 656.709M1509.42 647.412L1746.5 568.712M1746.5 259.396L1690.21 246.838M1746.5 259.396L1746.5 341.644M1746.5 259.396L1311.89 391.315M1509.42 206.5L1446.2 223.062M1509.42 206.5L1573.29 220.75M1398.14 687.387L1322.66 714.5L1319.92 632.252M1398.14 687.387L1382.98 239.624M1398.14 687.387L1453.78 667.399M1382.98 239.624L1307.5 259.397L1309.7 325.356M1382.98 239.624L1446.2 223.062M1446.2 223.062L1453.78 667.399M1573.29 220.75L1573.29 656.709M1573.29 220.75L1633.93 234.28M1573.29 656.709L1633.93 665.536M1633.93 665.536L1633.93 234.28M1633.93 665.536L1690.21 673.73M1633.93 665.536L1746.5 625.318M1633.93 234.28L1690.21 246.838M1633.93 234.28L1309.7 325.356M1690.21 246.838L1690.21 673.73M1690.21 673.73L1746.5 681.923L1746.5 625.318M1319.92 632.252L1746.5 491.948M1319.92 632.252L1317.62 563.229M1746.5 491.948L1746.5 414.861M1746.5 491.948L1746.5 568.712M1317.62 563.229L1746.5 414.861M1317.62 563.229L1314.81 478.723M1746.5 414.861L1746.5 341.644M1314.81 478.723L1746.5 341.644M1314.81 478.723L1311.89 391.315M1311.89 391.315L1309.7 325.356M1746.5 568.712L1746.5 625.318" stroke="url(#paint0_linear_4_4633)" stroke-width="2"/>
</g>
<defs>
<filter id="filter0_f_4_4633" x="1232" y="85" width="628" height="628" filterUnits="userSpaceOnUse" color-interpolation-filters="sRGB">
<feFlood flood-opacity="0" result="BackgroundImageFix"/>
<feBlend mode="normal" in="SourceGraphic" in2="BackgroundImageFix" result="shape"/>
<feGaussianBlur stdDeviation="100" result="effect1_foregroundBlur_4_4633"/>
</filter>
<linearGradient id="paint0_linear_4_4633" x1="1725" y1="289" x2="1567.5" y2="491" gradientUnits="userSpaceOnUse">
<stop stop-color="#CFDEEC"/>
<stop offset="1" stop-color="#B0C2D5" stop-opacity="0"/>
</linearGradient>
</defs>
</svg>
