<svg width="88" height="89" viewBox="0 0 88 89" fill="none" xmlns="http://www.w3.org/2000/svg">
<circle cx="44" cy="44.0244" r="44" fill="#292930"/>
<path d="M31.5749 62.6622H58.2009M49.3256 39.5863C49.3256 42.5274 46.9414 44.9115 44.0004 44.9115C41.0593 44.9115 38.6752 42.5274 38.6752 39.5863C38.6752 36.6453 41.0593 34.2611 44.0004 34.2611C46.9414 34.2611 49.3256 36.6453 49.3256 39.5863ZM58.201 39.7229C58.201 52.6263 44.0004 62.6622 44.0004 62.6622C44.0004 62.6622 29.7998 52.6263 29.7998 39.7229C29.7998 35.9204 31.2959 32.2737 33.9591 29.585C36.6222 26.8963 40.2342 25.3857 44.0004 25.3857C47.7666 25.3857 51.3786 26.8963 54.0417 29.585C56.7048 32.2737 58.201 35.9204 58.201 39.7229Z" stroke="#8A8A8A" stroke-width="2.2" stroke-linecap="round" stroke-linejoin="round"/>
</svg>
