<svg width="82" height="82" viewBox="0 0 82 82" fill="none" xmlns="http://www.w3.org/2000/svg">
<path d="M69.2778 40.582C69.2778 32.9714 66.2545 25.6725 60.873 20.291C55.4915 14.9094 48.1925 11.8861 40.5819 11.8861L40.5819 40.582H69.2778Z" fill="#5956E8"/>
<path d="M34.6641 18.1641C29.0273 18.1641 23.5171 19.8356 18.8303 22.9672C14.1435 26.0988 10.4906 30.5499 8.33349 35.7576C6.1764 40.9653 5.612 46.6957 6.71168 52.2241C7.81136 57.7526 10.5257 62.8308 14.5115 66.8166C18.4973 70.8024 23.5755 73.5168 29.104 74.6164C34.6324 75.7161 40.3629 75.1517 45.5705 72.9946C50.7782 70.8375 55.2293 67.1846 58.3609 62.4978C61.4926 57.811 63.1641 52.3008 63.1641 46.6641L34.6641 46.6641L34.6641 18.1641Z" fill="#FFDC60"/>
</svg>
