<svg width="88" height="89" viewBox="0 0 88 89" fill="none" xmlns="http://www.w3.org/2000/svg">
<circle cx="44" cy="44.0244" r="44" fill="#F5B7FF"/>
<path d="M44.0001 58.0243H28.4229C28.2354 58.0268 28.0493 57.9917 27.8755 57.921C27.7018 57.8504 27.5439 57.7457 27.4113 57.6131C27.2787 57.4805 27.174 57.3226 27.1034 57.1489C27.0327 56.9751 26.9976 56.789 27.0001 56.6015V41.0244C27.0001 36.5157 28.7912 32.1917 31.9793 29.0036C35.1674 25.8155 39.4914 24.0244 44.0001 24.0244V24.0244C46.2325 24.0244 48.4431 24.4641 50.5057 25.3185C52.5682 26.1728 54.4422 27.425 56.0208 29.0036C57.5994 30.5822 58.8516 32.4562 59.706 34.5188C60.5603 36.5813 61 38.7919 61 41.0244V41.0244C61 43.2568 60.5603 45.4674 59.706 47.5299C58.8516 49.5925 57.5994 51.4665 56.0208 53.0451C54.4422 54.6237 52.5682 55.8759 50.5057 56.7302C48.4431 57.5846 46.2325 58.0243 44.0001 58.0243V58.0243Z" stroke="#C556D7" stroke-width="2" stroke-linecap="round" stroke-linejoin="round"/>
<path d="M44 43.0244C45.1046 43.0244 46 42.129 46 41.0244C46 39.9198 45.1046 39.0244 44 39.0244C42.8954 39.0244 42 39.9198 42 41.0244C42 42.129 42.8954 43.0244 44 43.0244Z" fill="#C556D7"/>
<path d="M36 43.0244C37.1046 43.0244 38 42.129 38 41.0244C38 39.9198 37.1046 39.0244 36 39.0244C34.8954 39.0244 34 39.9198 34 41.0244C34 42.129 34.8954 43.0244 36 43.0244Z" fill="#C556D7"/>
<path d="M52 43.0244C53.1046 43.0244 54 42.129 54 41.0244C54 39.9198 53.1046 39.0244 52 39.0244C50.8954 39.0244 50 39.9198 50 41.0244C50 42.129 50.8954 43.0244 52 43.0244Z" fill="#C556D7"/>
</svg>
