<svg width="86" height="87" viewBox="0 0 86 87" fill="none" xmlns="http://www.w3.org/2000/svg">
<circle cx="43" cy="43.0244" r="42.5" fill="white" stroke="#D5D5D5"/>
<path d="M38.35 40.0487C38.5482 39.9334 38.7125 39.7686 38.8265 39.5708C38.9406 39.373 39.0004 39.149 39 38.9212V27.3242C39.0018 27.1166 38.953 26.9117 38.8577 26.7268C38.7624 26.542 38.6235 26.3826 38.4528 26.2624C38.2821 26.1422 38.0846 26.0647 37.8771 26.0364C37.6696 26.0081 37.4583 26.03 37.2612 26.1C33.97 27.2621 31.1215 29.404 29.1057 32.2325C27.0898 35.061 26.0051 38.4379 26 41.901C26.0018 42.9272 26.0942 43.9512 26.2762 44.9613C26.3153 45.1631 26.4019 45.3529 26.529 45.5153C26.656 45.6776 26.82 45.8079 27.0075 45.8956C27.1805 45.9764 27.3688 46.0203 27.56 46.0244C27.7886 46.023 28.0128 45.9619 28.21 45.8472L38.35 40.0487ZM36.4 29.2731V38.1803L28.6162 42.6419C28.6 42.3842 28.6 42.1426 28.6 41.901C28.605 39.2892 29.3355 36.7291 30.7114 34.5016C32.0872 32.2741 34.0554 30.4652 36.4 29.2731Z" fill="#292930"/>
<path d="M57.824 33.5799C57.8076 33.5616 57.7966 33.539 57.7922 33.5146L57.7287 33.4329C56.2751 30.8745 54.195 28.752 51.6954 27.2767C49.1959 25.8015 46.364 25.0249 43.4818 25.0244C43.1448 25.0244 42.8216 25.162 42.5833 25.407C42.3451 25.6519 42.2112 25.9842 42.2112 26.3306V41.2537L29.6479 48.7152C29.5014 48.7984 29.3727 48.9108 29.2691 49.0459C29.1656 49.181 29.0894 49.336 29.045 49.5019C29.0006 49.6677 28.9889 49.8409 29.0106 50.0115C29.0323 50.182 29.087 50.3464 29.1714 50.4949V50.5275L29.219 50.6091C31.0512 53.8332 33.866 56.3466 37.2279 57.7603C40.5898 59.174 44.3112 59.4092 47.8162 58.4294C51.3212 57.4496 54.4144 55.3095 56.6168 52.3404C58.8193 49.3712 60.0084 45.7386 60 42.0047C60.0038 39.0491 59.2535 36.1442 57.824 33.5799Z" fill="#292930"/>
</svg>
