<svg width="86" height="87" viewBox="0 0 86 87" fill="none" xmlns="http://www.w3.org/2000/svg">
<circle cx="43" cy="43.0244" r="42.5" fill="white" stroke="#D5D5D5"/>
<path d="M59.6131 38.4808C59.5754 38.3137 59.5017 38.1565 59.397 38.0199C59.2923 37.8833 59.159 37.7704 59.0062 37.6889L55.3953 35.7166C55.2032 35.3281 54.9908 34.9546 54.7581 34.596L54.8188 30.5319C54.8202 30.3614 54.7859 30.1925 54.718 30.0357C54.6501 29.8788 54.5502 29.7375 54.4243 29.6204C52.6264 28.0151 50.5002 26.8076 48.1887 26.0793C48.0228 26.0283 47.8477 26.0126 47.6751 26.0332C47.5024 26.0538 47.3362 26.1103 47.1874 26.1988L43.6524 28.2906C43.2124 28.2757 42.7876 28.2757 42.3476 28.2906L38.8126 26.1988C38.6638 26.1103 38.4976 26.0538 38.325 26.0332C38.1523 26.0126 37.9773 26.0283 37.8113 26.0793C35.4967 26.8081 33.3696 28.0212 31.5757 29.6354C31.4487 29.7484 31.3479 29.8869 31.2798 30.0415C31.2118 30.1962 31.1782 30.3634 31.1812 30.5319L31.2571 34.596C31.0143 34.9546 30.8019 35.3281 30.5895 35.7166L26.9938 37.6889C26.839 37.7679 26.7042 37.8801 26.5992 38.0171C26.4942 38.1541 26.4217 38.3125 26.3869 38.4808C25.871 40.8142 25.871 43.2296 26.3869 45.5631C26.4246 45.7302 26.4983 45.8873 26.603 46.024C26.7077 46.1606 26.841 46.2735 26.9938 46.355L30.6047 48.3273C30.7982 48.7138 31.0161 49.0881 31.2571 49.4479L31.1812 53.512C31.1798 53.6824 31.2141 53.8514 31.282 54.0082C31.3499 54.165 31.4498 54.3064 31.5757 54.4234C33.3761 56.0254 35.5015 57.2325 37.8113 57.9646C37.9773 58.0155 38.1523 58.0312 38.325 58.0106C38.4976 57.99 38.6638 57.9336 38.8126 57.845L42.3476 55.7532H43.6524L47.2026 57.845C47.3871 57.9645 47.6038 58.027 47.8246 58.0243C47.948 58.0191 48.0703 57.999 48.1887 57.9646C50.5033 57.2357 52.6304 56.0226 54.4243 54.4085C54.5513 54.2954 54.6521 54.1569 54.7202 54.0023C54.7882 53.8477 54.8218 53.6805 54.8188 53.512L54.7581 49.4479C54.9857 49.0893 55.1981 48.7157 55.4105 48.3273L59.0214 46.355C59.172 46.2726 59.3028 46.1592 59.4049 46.0226C59.507 45.8859 59.578 45.7292 59.6131 45.5631C60.129 43.2296 60.129 40.8142 59.6131 38.4808ZM49.6756 42.0219C49.6756 43.3222 49.2841 44.5933 48.5505 45.6744C47.817 46.7555 46.7744 47.5982 45.5546 48.0958C44.3348 48.5934 42.9926 48.7236 41.6977 48.4699C40.4027 48.2162 39.2133 47.5901 38.2797 46.6706C37.3461 45.7512 36.7103 44.5798 36.4527 43.3045C36.1951 42.0292 36.3273 40.7073 36.8326 39.5061C37.3378 38.3048 38.1935 37.278 39.2912 36.5556C40.389 35.8332 41.6797 35.4476 43 35.4476C44.7705 35.4476 46.4684 36.1403 47.7203 37.3732C48.9723 38.6061 49.6756 40.2783 49.6756 42.0219Z" fill="#292930"/>
</svg>
