<svg width="88" height="89" viewBox="0 0 88 89" fill="none" xmlns="http://www.w3.org/2000/svg">
<circle cx="44" cy="44.0244" r="44" fill="#5956E8"/>
<path d="M44 52.0244C48.4183 52.0244 52 48.4427 52 44.0244C52 39.6061 48.4183 36.0244 44 36.0244C39.5817 36.0244 36 39.6061 36 44.0244C36 48.4427 39.5817 52.0244 44 52.0244Z" stroke="#C4C2FF" stroke-width="2" stroke-linecap="round" stroke-linejoin="round"/>
<path d="M53.4313 33.374C53.8602 33.7691 54.2666 34.1755 54.6504 34.5931L59.2729 35.2535C60.0261 36.5615 60.6066 37.9616 61 39.4188L58.1892 43.1609C58.1892 43.1609 58.24 44.3123 58.1892 44.888L61 48.63C60.6084 50.0878 60.0278 51.4882 59.2729 52.7953L54.6504 53.4557C54.6504 53.4557 53.8546 54.2854 53.4313 54.6748L52.7709 59.2973C51.4629 60.0505 50.0628 60.631 48.6056 61.0244L44.8635 58.2137C44.289 58.2645 43.711 58.2645 43.1365 58.2137L39.3944 61.0244C37.9366 60.6329 36.5363 60.0522 35.2291 59.2973L34.5687 54.6748C34.1511 54.2797 33.7447 53.8734 33.3496 53.4557L28.7271 52.7953C27.9739 51.4873 27.3934 50.0872 27 48.63L29.8108 44.888C29.8108 44.888 29.76 43.7366 29.8108 43.1609L27 39.4188C27.3916 37.961 27.9722 36.5607 28.7271 35.2535L33.3496 34.5931C33.7447 34.1755 34.1511 33.7691 34.5687 33.374L35.2291 28.7515C36.5371 27.9983 37.9372 27.4178 39.3944 27.0244L43.1365 29.8352C43.711 29.7844 44.289 29.7844 44.8635 29.8352L48.6056 27.0244C50.0634 27.416 51.4637 27.9966 52.7709 28.7515L53.4313 33.374Z" stroke="#C4C2FF" stroke-width="2" stroke-linecap="round" stroke-linejoin="round"/>
</svg>
