<svg width="88" height="89" viewBox="0 0 88 89" fill="none" xmlns="http://www.w3.org/2000/svg">
<circle cx="44" cy="44.0244" r="44" fill="#292930"/>
<path d="M53.7778 29.6863C53.4536 29.6863 53.1427 29.8038 52.9135 30.013C52.6843 30.2221 52.5556 30.5058 52.5556 30.8017V35.2632H35.4444V30.8017C35.4444 30.5058 35.3157 30.2221 35.0865 30.013C34.8573 29.8038 34.5464 29.6863 34.2222 29.6863C33.8981 29.6863 33.5872 29.8038 33.358 30.013C33.1288 30.2221 33 30.5058 33 30.8017V57.5709C33 57.8667 33.1288 58.1504 33.358 58.3596C33.5872 58.5688 33.8981 58.6863 34.2222 58.6863C34.5464 58.6863 34.8573 58.5688 35.0865 58.3596C35.3157 58.1504 35.4444 57.8667 35.4444 57.5709V53.1094H52.5556V57.5709C52.5556 57.8667 52.6843 58.1504 52.9135 58.3596C53.1427 58.5688 53.4536 58.6863 53.7778 58.6863C54.1019 58.6863 54.4128 58.5688 54.642 58.3596C54.8712 58.1504 55 57.8667 55 57.5709V30.8017C55 30.5058 54.8712 30.2221 54.642 30.013C54.4128 29.8038 54.1019 29.6863 53.7778 29.6863ZM52.5556 37.494V43.0709H35.4444V37.494H52.5556ZM35.4444 50.8786V45.3017H52.5556V50.8786H35.4444Z" fill="#8A8A8A"/>
</svg>
