<svg width="88" height="89" viewBox="0 0 88 89" fill="none" xmlns="http://www.w3.org/2000/svg">
<circle cx="44" cy="44.0244" r="44" fill="#CA87FF"/>
<path d="M42.0979 26.1136C42.6966 24.271 45.3034 24.271 45.9021 26.1136L48.4373 33.916C48.9728 35.5641 50.5086 36.68 52.2415 36.68H60.4455C62.3829 36.68 63.1885 39.1592 61.6211 40.298L54.9839 45.1202C53.5819 46.1388 52.9953 47.9442 53.5308 49.5923L56.066 57.3948C56.6647 59.2374 54.5557 60.7696 52.9883 59.6308L46.3511 54.8087C44.9492 53.7901 43.0508 53.7901 41.6489 54.8087L35.0117 59.6308C33.4443 60.7696 31.3353 59.2374 31.934 57.3948L34.4692 49.5923C35.0047 47.9442 34.4181 46.1388 33.0161 45.1202L26.379 40.298C24.8115 39.1592 25.6171 36.68 27.5545 36.68H35.7585C37.4914 36.68 39.0272 35.5641 39.5627 33.916L42.0979 26.1136Z" stroke="#722AAB" stroke-width="2"/>
</svg>
