<svg width="88" height="89" viewBox="0 0 88 89" fill="none" xmlns="http://www.w3.org/2000/svg">
<circle cx="44" cy="44.0244" r="44" fill="#F96A4B"/>
<path d="M51.5976 39.8793L41.4617 49.549L36.4024 44.7141M31.3085 56.7149C29.7199 55.1263 30.7732 51.7937 29.9617 49.8425C29.1501 47.8913 26.042 46.1819 26.042 44.0234C26.042 41.865 29.1156 40.2246 29.9617 38.2044C30.8078 36.1841 29.7199 32.9206 31.3085 31.332C32.8971 29.7434 36.2297 30.7967 38.1809 29.9851C40.1321 29.1735 41.8416 26.0654 44 26.0654C46.1584 26.0654 47.7988 29.139 49.8191 29.9851C51.8394 30.8312 55.1029 29.7434 56.6915 31.332C58.2801 32.9206 57.2268 36.2531 58.0383 38.2044C58.8499 40.1556 61.958 41.865 61.958 44.0234C61.958 46.1819 58.8844 47.8222 58.0383 49.8425C57.1922 51.8628 58.2801 55.1263 56.6915 56.7149C55.1029 58.3035 51.7703 57.2502 49.8191 58.0618C47.8679 58.8733 46.1584 61.9814 44 61.9814C41.8416 61.9814 40.2012 58.9079 38.1809 58.0618C36.1606 57.2157 32.8971 58.3035 31.3085 56.7149Z" stroke="#A72D13" stroke-width="2.2" stroke-linecap="round" stroke-linejoin="round"/>
</svg>
