<svg width="88" height="89" viewBox="0 0 88 89" fill="none" xmlns="http://www.w3.org/2000/svg">
<circle cx="44" cy="44.0244" r="44" fill="#CA87FF"/>
<path d="M63.9069 48.2549L69.4948 45.4723C69.7107 45.3646 69.9029 45.2148 70.0601 45.0317C70.2173 44.8486 70.3363 44.6359 70.4101 44.4061C70.4838 44.1764 70.5109 43.9342 70.4897 43.6938C70.4685 43.4534 70.3995 43.2197 70.2866 43.0064L64.7213 32.351C64.5041 31.9322 64.13 31.6164 63.6808 31.4723C63.2316 31.3282 62.7436 31.3676 62.3233 31.5818L56.6676 34.4097M63.9069 48.2549L56.6676 34.4097M63.9069 48.2549L60.2872 52.5081M56.6676 34.4097H47.46C47.225 34.4089 46.9922 34.4544 46.7748 34.5437C46.5574 34.633 46.3597 34.7642 46.1931 34.93L37.3249 43.7756C37.1439 43.9615 37.0043 44.1837 36.9156 44.4276C36.8269 44.6714 36.7909 44.9314 36.8102 45.1901C36.8294 45.4489 36.9034 45.7007 37.0273 45.9287C37.1511 46.1568 37.322 46.3559 37.5285 46.513L38.7502 47.4405C40.0048 48.3769 41.5283 48.8827 43.0938 48.8827C44.6593 48.8827 46.1828 48.3769 47.4374 47.4405L50.3331 45.2687L60.2872 52.5081M24.0905 48.0287L18.5026 45.2235C18.2875 45.118 18.0957 44.9704 17.9388 44.7893C17.7818 44.6083 17.6629 44.3975 17.589 44.1696C17.5151 43.9417 17.4879 43.7012 17.5088 43.4625C17.5297 43.2238 17.5984 42.9918 17.7108 42.7802L23.2761 32.1248C23.4938 31.7063 23.8663 31.3894 24.3142 31.2415C24.7621 31.0936 25.25 31.1264 25.6741 31.333L31.3299 34.1608L24.0905 48.0287ZM24.0905 48.0287L36.4653 57.6887C36.6583 57.8457 36.8816 57.9612 37.1213 58.0281L50.2427 61.3084C50.5463 61.374 50.8613 61.365 51.1607 61.2823C51.4602 61.1995 51.7351 61.0455 51.962 60.8333L60.2872 52.5081M31.4656 34.1608L43.0712 30.7674C43.4835 30.6491 43.9245 30.6812 44.3154 30.8579L52.143 34.4097" stroke="#722AAB" stroke-width="2.2" stroke-linecap="round" stroke-linejoin="round"/>
</svg>
